HIERARCHY
ROOT hip
{
  OFFSET 0.00112043 5.09927 -9.65472
  CHANNELS 6 Xposition Yposition Zposition Zrotation Xrotation Yrotation
  JOINT abdomen
  {
    OFFSET 0 -1.186 -1.5018
    CHANNELS 3 Zrotation Xrotation Yrotation
    JOINT abdomen2
    {
      OFFSET 0 9.964 0.2134
      CHANNELS 3 Zrotation Xrotation Yrotation
      JOINT chest
      {
        OFFSET 0 13.134 -3.2573
        CHANNELS 3 Zrotation Xrotation Yrotation
        JOINT neck
        {
          OFFSET 0 20.686 -1.6905
          CHANNELS 3 Zrotation Xrotation Yrotation
          JOINT head
          {
            OFFSET 0 7.238 -0.1237
            CHANNELS 3 Zrotation Xrotation Yrotation
            End Site
            {
              OFFSET 0 0 0
            }
          }
        }
        JOINT lCollar
        {
          OFFSET 1.7069 20.075 5.0056
          CHANNELS 3 Zrotation Xrotation Yrotation
          JOINT lShldr
          {
            OFFSET 13.6458 -0.047 -4.849
            CHANNELS 3 Zrotation Xrotation Yrotation
            JOINT lForeArm
            {
              OFFSET 28.3255 -0.9759 2.2888
              CHANNELS 3 Zrotation Xrotation Yrotation
              JOINT lHand
              {
                OFFSET 22.1583 -0.53 10.8316
                CHANNELS 3 Zrotation Xrotation Yrotation
                JOINT lThumb1
                {
                  OFFSET 0.786 0.112 2.5817
                  CHANNELS 3 Zrotation Xrotation Yrotation
                  JOINT lThumb2
                  {
                    OFFSET 0.3601 -0.878 4.2331
                    CHANNELS 3 Zrotation Xrotation Yrotation
                    JOINT lThumb2_End
                    {
                      OFFSET 1.8127 -1.216 2.2227
                      CHANNELS 3 Zrotation Xrotation Yrotation
                      End Site
                      {
                        OFFSET 0.0181 -0.0122 0.0222
                      }
                    }
                  }
                }
                JOINT lCarpal1
                {
                  OFFSET 0.9571 1.114 1.7695
                  CHANNELS 3 Zrotation Xrotation Yrotation
                  JOINT lIndex1
                  {
                    OFFSET 4.1246 0.487 4.1451
                    CHANNELS 3 Zrotation Xrotation Yrotation
                    JOINT lIndex2
                    {
                      OFFSET 3.4052 -1.454 2.7682
                      CHANNELS 3 Zrotation Xrotation Yrotation
                      JOINT lIndex2_End
                      {
                        OFFSET 1.4531 -1.795 1.2713
                        CHANNELS 3 Zrotation Xrotation Yrotation
                        End Site
                        {
                          OFFSET 0.0145 -0.0179 0.0127
                        }
                      }
                    }
                  }
                  JOINT lMid1
                  {
                    OFFSET 5.6954 0.21 2.1184
                    CHANNELS 3 Zrotation Xrotation Yrotation
                    JOINT lMid2
                    {
                      OFFSET 3.9766 -1.54 2.3863
                      CHANNELS 3 Zrotation Xrotation Yrotation
                      JOINT lMid2_End
                      {
                        OFFSET 1.4042 -1.926 1.125
                        CHANNELS 3 Zrotation Xrotation Yrotation
                        End Site
                        {
                          OFFSET 0.014 -0.0193 0.0113
                        }
                      }
                    }
                  }
                }
                JOINT lCarpal2
                {
                  OFFSET 2.0956 0.66 -0.3894
                  CHANNELS 3 Zrotation Xrotation Yrotation
                  JOINT lRing1
                  {
                    OFFSET 5.0395 -0.09 2.4971
                    CHANNELS 3 Zrotation Xrotation Yrotation
                    JOINT lRing2
                    {
                      OFFSET 3.7921 -1.552 1.4806
                      CHANNELS 3 Zrotation Xrotation Yrotation
                      JOINT lRing2_End
                      {
                        OFFSET 1.4655 -1.808 0.9609
                        CHANNELS 3 Zrotation Xrotation Yrotation
                        End Site
                        {
                          OFFSET 0.0147 -0.0181 0.0096
                        }
                      }
                    }
                  }
                  JOINT lPinky1
                  {
                    OFFSET 4.9141 -1.269 0.3591
                    CHANNELS 3 Zrotation Xrotation Yrotation
                    JOINT lPinky2
                    {
                      OFFSET 3.1477 -1.685 0.8462
                      CHANNELS 3 Zrotation Xrotation Yrotation
                      JOINT lPinky2_End
                      {
                        OFFSET 0.8055 -1.585 0.7955
                        CHANNELS 3 Zrotation Xrotation Yrotation
                        End Site
                        {
                          OFFSET 0.0081 -0.0158 0.008
                        }
                      }
                    }
                  }
                }
              }
            }
          }
        }
        JOINT rCollar
        {
          OFFSET -1.7069 20.075 5.0056
          CHANNELS 3 Zrotation Xrotation Yrotation
          JOINT rShldr
          {
            OFFSET -13.6458 -0.047 -4.849
            CHANNELS 3 Zrotation Xrotation Yrotation
            JOINT rForeArm
            {
              OFFSET -28.3255 -0.9759 2.2888
              CHANNELS 3 Zrotation Xrotation Yrotation
              JOINT rHand
              {
                OFFSET -22.1583 -0.53 10.8316
                CHANNELS 3 Zrotation Xrotation Yrotation
                JOINT rThumb1
                {
                  OFFSET -0.786 0.112 2.5817
                  CHANNELS 3 Zrotation Xrotation Yrotation
                  JOINT rThumb2
                  {
                    OFFSET -0.3601 -0.878 4.2331
                    CHANNELS 3 Zrotation Xrotation Yrotation
                    JOINT rThumb2_End
                    {
                      OFFSET -1.8127 -1.216 2.2227
                      CHANNELS 3 Zrotation Xrotation Yrotation
                      End Site
                      {
                        OFFSET -0.0181 -0.0122 0.0222
                      }
                    }
                  }
                }
                JOINT rCarpal1
                {
                  OFFSET -0.9571 1.114 1.7695
                  CHANNELS 3 Zrotation Xrotation Yrotation
                  JOINT rIndex1
                  {
                    OFFSET -4.1246 0.487 4.1451
                    CHANNELS 3 Zrotation Xrotation Yrotation
                    JOINT rIndex2
                    {
                      OFFSET -3.4052 -1.454 2.7682
                      CHANNELS 3 Zrotation Xrotation Yrotation
                      JOINT rIndex2_End
                      {
                        OFFSET -1.4531 -1.795 1.2713
                        CHANNELS 3 Zrotation Xrotation Yrotation
                        End Site
                        {
                          OFFSET -0.0145 -0.018 0.0127
                        }
                      }
                    }
                  }
                  JOINT rMid1
                  {
                    OFFSET -5.6954 0.21 2.1184
                    CHANNELS 3 Zrotation Xrotation Yrotation
                    JOINT rMid2
                    {
                      OFFSET -3.9766 -1.54 2.3863
                      CHANNELS 3 Zrotation Xrotation Yrotation
                      JOINT rMid2_End
                      {
                        OFFSET -1.4042 -1.926 1.125
                        CHANNELS 3 Zrotation Xrotation Yrotation
                        End Site
                        {
                          OFFSET -0.014 -0.0193 0.0113
                        }
                      }
                    }
                  }
                }
                JOINT rCarpal2
                {
                  OFFSET -2.0956 0.66 -0.3894
                  CHANNELS 3 Zrotation Xrotation Yrotation
                  JOINT rRing1
                  {
                    OFFSET -5.0395 -0.09 2.4971
                    CHANNELS 3 Zrotation Xrotation Yrotation
                    JOINT rRing2
                    {
                      OFFSET -3.7921 -1.552 1.4806
                      CHANNELS 3 Zrotation Xrotation Yrotation
                      JOINT rRing2_End
                      {
                        OFFSET -1.4655 -1.808 0.9609
                        CHANNELS 3 Zrotation Xrotation Yrotation
                        End Site
                        {
                          OFFSET -0.0147 -0.0181 0.0096
                        }
                      }
                    }
                  }
                  JOINT rPinky1
                  {
                    OFFSET -4.9141 -1.269 0.3592
                    CHANNELS 3 Zrotation Xrotation Yrotation
                    JOINT rPinky2
                    {
                      OFFSET -3.1477 -1.685 0.8462
                      CHANNELS 3 Zrotation Xrotation Yrotation
                      JOINT rPinky2_End
                      {
                        OFFSET -0.8055 -1.585 0.7955
                        CHANNELS 3 Zrotation Xrotation Yrotation
                        End Site
                        {
                          OFFSET -0.0081 -0.0158 0.008
                        }
                      }
                    }
                  }
                }
              }
            }
          }
        }
      }
    }
  }
  JOINT lThigh
  {
    OFFSET 8.367 -8.2066 0.5982
    CHANNELS 3 Zrotation Xrotation Yrotation
    JOINT lShin
    {
      OFFSET 2.1923 -43.463 -0.4932
      CHANNELS 3 Zrotation Xrotation Yrotation
      JOINT lFoot
      {
        OFFSET 0.7333 -45.8593 -2.6451
        CHANNELS 3 Zrotation Xrotation Yrotation
        End Site
        {
          OFFSET 2.6618 -4.2699 12.3931
        }
      }
    }
  }
  JOINT rThigh
  {
    OFFSET -8.367 -8.2066 0.5982
    CHANNELS 3 Zrotation Xrotation Yrotation
    JOINT rShin
    {
      OFFSET -2.1923 -43.463 -0.4931
      CHANNELS 3 Zrotation Xrotation Yrotation
      JOINT rFoot
      {
        OFFSET -0.7333 -45.8593 -2.6451
        CHANNELS 3 Zrotation Xrotation Yrotation
        End Site
        {
          OFFSET -2.6618 -4.2699 12.3931
        }
      }
    }
  }
}
MOTION
Frames:	4
Frame Time:	0.0333333
0 91.7903 2.51682 0 0 -0 0 0 -0 0 0 -0 0 0 -0 0 0 -0 0 0 -0 0 0 -0 1.66051 0.0835086 5.75766 -0.0175111 0.895433 15.7816 7.95139e-016 -1.98785e-016 -0 5.46658e-016 -3.97569e-016 -0 5.96354e-016 0 -0 3.97569e-016 1.98785e-016 9.54166e-015 1.49089e-016 -3.97569e-016 -0 6.4605e-016 0 3.18055e-015 5.96354e-016 0 3.18055e-015 8.94531e-016 -1.98785e-016 6.36111e-015 6.4605e-016 0 3.18055e-015 5.96354e-016 0 3.18055e-015 8.94531e-016 -1.98785e-016 6.36111e-015 1.49089e-016 -3.97569e-016 -0 6.4605e-016 0 3.18055e-015 5.96354e-016 0 3.18055e-015 8.94531e-016 -1.98785e-016 6.36111e-015 6.4605e-016 0 3.18055e-015 5.96354e-016 0 3.18055e-015 8.94531e-016 -1.98785e-016 6.36111e-015 0 0 -0 -1.4496 0.0636048 -5.0245 -1.74811 1.20616 -16.8394 -1.19271e-015 1.98785e-016 -3.18055e-015 -3.97569e-016 1.98785e-016 -3.18055e-015 -2.98177e-016 1.98785e-016 -3.18055e-015 -2.98177e-016 3.97569e-016 -0 4.96962e-016 0 -6.36111e-015 -9.93923e-017 3.97569e-016 -0 -8.94531e-016 5.96354e-016 -0 -3.97569e-016 3.97569e-016 -0 -9.93923e-017 3.97569e-016 -0 -8.94531e-016 5.96354e-016 -0 -3.97569e-016 3.97569e-016 -0 4.96962e-016 0 -6.36111e-015 -9.93923e-017 3.97569e-016 -0 -8.94531e-016 5.96354e-016 -0 -3.97569e-016 3.97569e-016 -0 -9.93923e-017 3.97569e-016 -0 -8.94531e-016 5.96354e-016 -0 -3.97569e-016 3.97569e-016 -0 -4.66111 -0.998717 0.12318 0.00986924 1.54847 0.176523 4.65186 -0.572283 -0.254274 4.66111 -0.998765 -0.123176 -0.00986867 1.54869 -0.176537 -4.65186 -0.572453 0.25427 
1.88696 8.04644 -15.1418 -13.0539 -27.4089 25.9247 0.275642 5.9432 -1.42976 0.706941 11.8775 -2.9121 0.706943 11.8775 -2.9121 7.02709 -3.84398 0.777753 17.5203 3.87922 -4.16195 13.6655 -11.8864 8.17327 -25.0932 27.8772 -15.652 27.2384 -16.3639 -52.8237 -38.6267 -41.3588 -3.10221 -1.10348e-031 -1.98785e-015 -3.18055e-015 -5.2663e-006 -2.20797e-006 1.66342e-006 -2.78299e-015 -3.18055e-015 -3.18055e-015 -1.54487e-031 -2.78299e-015 -3.18055e-015 6.36111e-015 -4.37326e-015 1.59028e-014 -5.2663e-006 -2.20797e-006 1.66342e-006 -5.96354e-015 1.59028e-015 3.18055e-015 6.36111e-015 -4.37326e-015 1.59028e-014 -5.2663e-006 -2.20797e-006 1.66342e-006 -5.96354e-015 1.59028e-015 3.18055e-015 -1.54487e-031 -2.78299e-015 -3.18055e-015 6.36111e-015 -4.37326e-015 1.59028e-014 -5.2663e-006 -2.20797e-006 1.66342e-006 -5.96354e-015 1.59028e-015 3.18055e-015 6.36111e-015 -4.37326e-015 1.59028e-014 -5.2663e-006 -2.20797e-006 1.66342e-006 -5.96354e-015 1.59028e-015 3.18055e-015 -0.514173 -8.92893 15.5137 71.442 5.87622 0.100885 -11.1705 -10.9141 44.335 0.217592 1.47766 -8.6445 -6.65238e-007 -1.01382e-006 4.11863e-007 -2.21746e-007 -3.37941e-007 1.37288e-007 -6.65238e-007 -1.01382e-006 4.11863e-007 3.18055e-015 6.36111e-015 9.54166e-015 -6.65238e-007 -1.01382e-006 4.11863e-007 -2.21746e-007 -3.37941e-007 1.37288e-007 -6.65238e-007 -1.01382e-006 4.11863e-007 -6.65238e-007 -1.01382e-006 4.11863e-007 -2.21746e-007 -3.37941e-007 1.37288e-007 -6.65238e-007 -1.01382e-006 4.11863e-007 3.18055e-015 6.36111e-015 9.54166e-015 -6.65238e-007 -1.01382e-006 4.11863e-007 -2.21746e-007 -3.37941e-007 1.37288e-007 -6.65238e-007 -1.01382e-006 4.11863e-007 -6.65238e-007 -1.01382e-006 4.11863e-007 -2.21746e-007 -3.37941e-007 1.37288e-007 -6.65238e-007 -1.01382e-006 4.11863e-007 -19.6202 -78.5627 34.0766 -161.499 81.4848 165.654 -30.2796 40.5174 47.6969 92.0959 -77.3469 129.97 -173.764 65.4304 169.773 39.1406 52.2605 -9.33119 
1.88696 8.04644 -15.1418 -13.0539 -27.4089 25.9247 0.275634 5.94319 -1.42976 0.706943 11.8775 -2.9121 0.706944 11.8775 -2.9121 6.9242 -4.09689 0.941902 17.5204 3.87947 -4.16225 13.6655 -11.8864 8.17327 -25.0932 27.8773 -15.652 27.2384 -16.3639 -52.8237 -38.4874 -41.389 -3.26545 -3.03405e-006 1.49036e-006 -2.21007e-006 6.36111e-015 -5.1684e-015 6.36111e-015 -5.26412e-006 -2.21744e-006 1.67406e-006 1.19271e-015 1.19271e-015 6.36111e-015 -3.03405e-006 1.49036e-006 -2.21007e-006 5.1684e-015 -1.11319e-014 9.54166e-015 -5.26412e-006 -2.21744e-006 1.67406e-006 -3.03405e-006 1.49036e-006 -2.21007e-006 5.1684e-015 -1.11319e-014 9.54166e-015 -5.26412e-006 -2.21744e-006 1.67406e-006 1.19271e-015 1.19271e-015 6.36111e-015 -3.03405e-006 1.49036e-006 -2.21007e-006 5.1684e-015 -1.11319e-014 9.54166e-015 -5.26412e-006 -2.21744e-006 1.67406e-006 -3.03405e-006 1.49036e-006 -2.21007e-006 5.1684e-015 -1.11319e-014 9.54166e-015 -5.26412e-006 -2.21744e-006 1.67406e-006 -0.514174 -8.92893 15.5137 71.442 5.87621 0.10096 -11.1461 -10.9422 44.4629 0.409181 1.55459 -8.6398 2.22225e-007 3.37472e-007 -1.37675e-007 4.4445e-007 6.74944e-007 -2.7535e-007 4.4445e-007 6.74944e-007 -2.7535e-007 3.53113e-031 -3.18055e-015 6.36111e-015 2.22225e-007 3.37472e-007 -1.37675e-007 4.4445e-007 6.74944e-007 -2.7535e-007 4.4445e-007 6.74944e-007 -2.7535e-007 2.22225e-007 3.37472e-007 -1.37675e-007 4.4445e-007 6.74944e-007 -2.7535e-007 4.4445e-007 6.74944e-007 -2.7535e-007 3.53113e-031 -3.18055e-015 6.36111e-015 2.22225e-007 3.37472e-007 -1.37675e-007 4.4445e-007 6.74944e-007 -2.7535e-007 4.4445e-007 6.74944e-007 -2.7535e-007 2.22225e-007 3.37472e-007 -1.37675e-007 4.4445e-007 6.74944e-007 -2.7535e-007 4.4445e-007 6.74944e-007 -2.7535e-007 -19.6202 -78.5627 34.0766 -161.499 81.4848 165.654 -30.2796 40.5174 47.6968 92.0963 -77.3469 129.97 -173.764 65.4303 169.773 39.1406 52.2605 -9.33118 
1.88696 8.04644 -15.1418 -13.0539 -27.4089 25.9247 0.275634 5.94319 -1.42976 0.706943 11.8775 -2.9121 0.706944 11.8775 -2.9121 6.82193 -4.35032 1.10581 17.5205 3.87971 -4.16256 13.6655 -11.8864 8.17327 -25.0932 27.8773 -15.652 27.2384 -16.3639 -52.8237 -38.348 -41.4195 -3.42879 -2.63095e-006 -1.11345e-006 8.42349e-007 -3.18768e-006 2.02022e-007 1.67775e-006 -3.18768e-006 2.02022e-007 1.67775e-006 2.78299e-015 5.56597e-015 3.18055e-015 -2.63095e-006 -1.11345e-006 8.42349e-007 -3.18768e-006 2.02022e-007 1.67775e-006 -3.18768e-006 2.02022e-007 1.67775e-006 -2.63095e-006 -1.11345e-006 8.42349e-007 -3.18768e-006 2.02022e-007 1.67775e-006 -3.18768e-006 2.02022e-007 1.67775e-006 2.78299e-015 5.56597e-015 3.18055e-015 -2.63095e-006 -1.11345e-006 8.42349e-007 -3.18768e-006 2.02022e-007 1.67775e-006 -3.18768e-006 2.02022e-007 1.67775e-006 -2.63095e-006 -1.11345e-006 8.42349e-007 -3.18768e-006 2.02022e-007 1.67775e-006 -3.18768e-006 2.02022e-007 1.67775e-006 -0.514174 -8.92893 15.5137 71.4419 5.87621 0.101037 -11.1217 -10.9702 44.5908 0.600904 1.6316 -8.63535 -2.22704e-007 -3.37001e-007 1.38061e-007 -2.22704e-007 -3.37001e-007 1.38061e-007 -9.54166e-015 4.77083e-015 6.36111e-015 -6.36111e-015 -3.18055e-015 9.54166e-015 -2.22704e-007 -3.37001e-007 1.38061e-007 -2.22704e-007 -3.37001e-007 1.38061e-007 -6.36111e-015 -4.77083e-015 6.36111e-015 -2.22704e-007 -3.37001e-007 1.38061e-007 -2.22704e-007 -3.37001e-007 1.38061e-007 -6.36111e-015 -4.77083e-015 6.36111e-015 -6.36111e-015 -3.18055e-015 9.54166e-015 -2.22704e-007 -3.37001e-007 1.38061e-007 -2.22704e-007 -3.37001e-007 1.38061e-007 -6.36111e-015 -4.77083e-015 6.36111e-015 -2.22704e-007 -3.37001e-007 1.38061e-007 -2.22704e-007 -3.37001e-007 1.38061e-007 -6.36111e-015 -4.77083e-015 6.36111e-015 -19.6202 -78.5627 34.0766 -161.499 81.4848 165.654 -30.2796 40.5174 47.6968 92.0963 -77.3469 129.97 -173.764 65.4303 169.773 39.1406 52.2605 -9.33118 
